<svg width="42" height="37" viewBox="0 0 42 37" fill="none" xmlns="http://www.w3.org/2000/svg">
<path d="M7 29.2917V26.2083H10.5V15.4167C10.5 13.284 11.2292 11.3955 12.6875 9.75104C14.1458 8.0809 16.0417 6.98888 18.375 6.47499V5.39583C18.375 4.75347 18.6229 4.21388 19.1188 3.77708C19.6438 3.31458 20.2708 3.08333 21 3.08333C21.7292 3.08333 22.3417 3.31458 22.8375 3.77708C23.3625 4.21388 23.625 4.75347 23.625 5.39583V6.47499C25.9583 6.98888 27.8542 8.0809 29.3125 9.75104C30.7708 11.3955 31.5 13.284 31.5 15.4167V26.2083H35V29.2917H7ZM21 33.9167C20.0375 33.9167 19.2063 33.6212 18.5063 33.0302C17.8354 32.4135 17.5 31.6812 17.5 30.8333H24.5C24.5 31.6812 24.15 32.4135 23.45 33.0302C22.7792 33.6212 21.9625 33.9167 21 33.9167ZM14 26.2083H28V15.4167C28 13.7208 27.3146 12.2691 25.9438 11.0615C24.5729 9.85381 22.925 9.24999 21 9.24999C19.075 9.24999 17.4271 9.85381 16.0563 11.0615C14.6854 12.2691 14 13.7208 14 15.4167V26.2083Z" fill="white"/>
</svg>
